<svg width="596" height="656" viewBox="0 0 596 656" fill="none" xmlns="http://www.w3.org/2000/svg">
<path opacity="0.86" d="M140.471 407.955C137.045 407.955 136.36 407.955 135.674 407.955V407.271C135.674 407.271 135.674 407.955 134.989 407.955C132.248 407.955 126.081 410.694 124.026 412.063C124.026 411.379 124.026 410.694 124.026 410.694C124.026 410.009 124.026 409.325 124.026 409.325L123.34 410.009C123.34 410.009 122.655 410.009 121.97 410.009C121.97 410.009 121.285 409.325 121.285 408.64C121.285 408.64 120.599 409.325 121.285 410.009C120.599 410.009 120.599 410.694 120.599 411.379C118.544 409.325 112.377 405.217 110.321 403.848C110.321 403.848 109.636 403.163 109.636 402.478C109.636 402.478 109.636 403.163 109.636 403.848C108.951 403.163 103.469 400.424 96.6166 401.109C100.043 401.109 102.098 403.163 101.413 405.217C104.154 405.217 106.21 405.901 107.58 410.694C109.636 410.009 116.488 410.694 118.544 420.963C118.544 421.648 117.859 423.017 118.544 423.017C118.544 423.017 119.229 421.648 119.914 422.333C120.599 422.333 120.599 423.702 120.599 423.702C120.599 423.702 120.599 422.333 121.285 421.648C122.655 419.594 126.766 414.117 132.248 416.856C132.248 415.486 135.674 411.379 141.841 412.748C141.156 410.694 145.268 410.694 147.323 411.379C145.953 409.325 142.527 407.955 140.471 407.955Z" fill="#131313"/>
<path opacity="0.85" d="M16.4454 648.262C16.4454 648.262 15.7602 648.262 16.4454 648.262C15.075 648.262 13.0193 648.262 9.59316 647.578C9.59316 647.578 9.59316 646.893 9.59316 646.208V645.524C9.59316 645.524 9.59312 645.524 8.9079 645.524H8.22268C8.22268 645.524 8.22268 645.524 8.22268 646.208C8.22268 646.208 8.22268 646.208 8.22268 646.893C6.16701 642.785 5.48177 641.416 5.48177 641.416C5.48177 640.731 5.48177 640.731 5.48177 640.731C5.48177 640.731 4.79656 640.731 4.79656 641.416C2.74088 637.993 0 637.308 0 637.308C1.37045 637.993 1.37043 639.362 1.37043 640.047C3.42611 642.101 3.42614 644.154 2.74091 645.524C6.85226 647.578 5.48181 651.001 6.16704 652.37C6.16704 653.055 5.48177 654.424 5.48177 654.424L6.16704 653.739V655.109C6.16704 655.109 6.16703 654.424 6.85225 653.739C12.3341 649.632 15.0749 652.37 15.7601 653.739C17.8158 652.37 19.8715 652.37 21.242 653.055C23.2976 651.685 23.9829 653.055 23.9829 653.055C21.9272 649.632 16.4454 648.947 16.4454 648.262Z" fill="#131313"/>
<path opacity="0.87" d="M55.5032 429.179C60.985 427.125 55.5032 421.648 51.3918 420.279C67.152 421.648 72.6338 431.233 74.0042 433.287C74.0042 433.287 75.3747 431.233 77.4304 432.602C76.0599 433.287 75.3747 433.972 74.6895 434.656C74.0043 438.079 74.6895 442.872 75.3747 446.295C76.0599 446.295 77.4304 446.295 78.8008 446.295C79.4861 444.926 80.8565 444.241 80.8565 444.241C80.8565 444.241 80.1713 444.926 80.8565 446.295C81.5417 446.295 82.227 446.295 82.227 446.98C82.227 446.98 82.2269 446.98 82.9122 446.98C83.5974 446.295 84.2826 445.61 84.2826 445.61C84.2826 445.61 84.2826 446.98 84.2826 447.664C85.653 449.034 86.3383 450.403 85.6531 451.087C84.9679 451.772 83.5974 451.772 81.5417 452.457C82.9122 455.195 87.7088 458.618 89.0792 459.303C90.4497 459.988 92.5053 459.303 92.5053 459.303C91.8201 460.672 89.7644 460.672 90.4496 461.357C91.1349 462.726 96.6167 472.311 89.7644 488.742C89.7644 477.104 84.2826 479.842 83.5974 479.842C83.5974 479.842 83.5974 466.834 74.6895 468.888C76.0599 462.726 76.7452 455.195 64.4111 453.141C63.7259 453.141 63.0407 453.141 62.3554 452.457C59.6145 452.457 56.1884 451.772 52.7623 451.087C65.0963 442.872 59.6145 441.503 56.8736 438.079C59.6145 436.71 61.6702 432.602 55.5032 429.179Z" fill="#131313"/>
<ellipse opacity="0.05" cx="321.5" cy="263.5" rx="274.5" ry="263.5" fill="#B60146"/>
<ellipse opacity="0.1" cx="321.5" cy="263" rx="207.5" ry="199" fill="#B60146"/>
<ellipse cx="321.5" cy="262.966" rx="154.474" ry="147.745" fill="url(#paint0_linear_3081_1525)"/>
<path d="M381.459 158.549C376.167 158.637 370.328 159.949 367.409 164.237C366.587 165.462 366.04 166.862 366.223 168.262C366.679 171.762 370.784 173.424 374.342 174.387C382.736 176.662 392.042 179.462 396.695 186.55C397.425 187.6 397.972 188.825 397.79 190.05C397.607 191.1 396.969 192.062 396.604 193.025C394.961 196.963 397.607 201.6 401.439 203.788C405.271 205.888 409.924 206.063 414.394 205.975C428.444 205.713 435.469 210.088 442.951 221.376C446.509 226.801 450.067 232.488 451.162 238.876C452.074 244.651 450.888 250.339 450.432 256.114C449.976 261.802 452.074 267.664 450.979 273.264C450.249 276.939 447.969 280.177 446.326 283.59C444.319 287.702 443.224 292.077 442.13 296.54C439.849 305.553 437.568 314.565 435.378 323.491C434.922 325.241 434.466 327.866 437.112 328.216C442.951 329.003 447.421 315.965 447.877 312.028C448.242 309.14 448.151 306.165 448.881 303.278C449.793 299.953 451.8 297.152 453.899 294.352C456.271 291.115 458.552 287.965 460.924 284.727C462.566 282.452 464.208 280.177 465.121 277.639C466.58 273.264 465.851 268.539 464.665 264.077C462.11 254.539 457.822 244.826 459.738 235.113C461.015 228.376 465.303 221.813 463.296 215.25C460.377 205.625 446.326 203.438 440.944 194.775C438.024 190.05 438.115 184.1 435.287 179.375C432.459 174.562 427.076 171.762 423.244 167.737C417.77 161.874 415.763 153.824 411.201 147.261C406.092 140.086 398.063 134.923 389.305 133.261C386.933 132.823 381.732 131.686 379.634 133.086C374.16 136.586 387.754 142.186 389.852 143.411C392.589 144.986 396.604 147.524 395.965 151.199C395.691 152.599 393.593 153.561 393.684 154.961C393.775 156.011 395.691 156.274 395.509 157.499C394.961 160.649 383.74 158.462 381.459 158.549Z" fill="url(#paint1_linear_3081_1525)"/>
<path d="M317.138 166.687C312.85 168.174 308.197 170.012 304.731 172.987C299.713 177.362 300.26 180.512 305.369 184.1C308.836 186.55 310.387 189.612 314.949 190.575C321.7 191.975 327.448 192.85 332.739 197.575C335.477 200.025 338.487 203.875 342.775 203.438C349.8 202.65 352.994 192.85 348.614 187.95C345.877 184.975 334.655 184.1 333.926 180.862C333.196 177.8 340.403 175.175 342.41 173.95C345.695 171.937 346.881 167.387 344.874 164.149C339.673 155.399 323.799 164.499 317.138 166.687Z" fill="url(#paint2_linear_3081_1525)"/>
<path d="M390.035 273.964C389.852 273.964 389.578 273.964 389.396 273.964C380.82 274.139 368.594 269.239 363.577 279.04C362.755 280.615 362.39 282.277 361.478 283.852C358.559 289.015 351.442 290.59 346.424 293.215C341.407 295.84 335.659 298.903 333.287 304.24C330.732 310.015 334.199 314.04 340.494 314.04C343.779 314.04 346.972 313.253 350.256 313.515C353.541 313.778 357.008 315.615 357.555 318.678C359.106 326.991 346.881 335.128 340.312 337.928C338.305 338.804 336.115 339.504 334.29 340.729C328.634 344.579 330.093 353.066 336.297 355.779C340.95 357.791 346.881 356.129 350.256 352.454C356.187 346.066 362.117 355.254 364.489 360.154C365.949 363.304 367.317 367.067 370.693 368.292C373.43 369.254 376.441 368.029 378.721 366.367C382.553 363.567 385.017 359.192 384.013 354.466C383.466 351.929 382.188 349.566 381.367 347.029C374.707 327.516 417.587 341.954 412.113 323.053C410.836 318.591 406.274 316.053 404.815 311.59C403.264 307.04 404.176 301.878 407.552 298.29C410.106 295.577 413.756 294.002 417.131 292.252C425.342 288.052 425.616 282.715 428.535 274.927C430.178 270.377 433.645 265.914 432.824 260.752C431.82 254.451 421.328 244.214 414.029 246.314C408.92 247.801 410.197 254.189 409.741 258.127C408.646 267.839 399.523 273.527 390.035 273.964Z" fill="url(#paint3_linear_3081_1525)"/>
<path d="M322.156 254.189C321.518 257.951 323.069 261.802 324.984 265.214C325.897 266.877 327.174 268.627 328.999 269.327C331.553 270.202 334.564 268.627 335.568 266.264C336.571 263.902 335.933 261.014 334.29 258.914C333.013 257.339 331.097 255.676 331.462 253.751C331.918 251.039 335.933 250.601 337.666 248.501C338.761 247.189 338.852 245.089 337.757 243.689C332.739 236.951 322.886 249.814 322.156 254.189Z" fill="url(#paint4_linear_3081_1525)"/>
<path d="M346.425 238.089C347.337 239.051 348.067 240.189 349.07 240.976C351.899 243.164 356.734 242.289 358.559 239.226C358.741 238.876 358.924 238.526 358.924 238.176C358.924 237.739 358.65 237.389 358.468 237.039C356.46 234.151 352.993 232.226 349.344 232.051C345.968 231.876 345.147 230.213 342.501 229.426C340.859 228.901 340.677 228.201 339.764 230.038C338.122 233.451 344.782 236.251 346.425 238.089Z" fill="url(#paint5_linear_3081_1525)"/>
<path d="M413.756 379.492C382.827 403.38 342.41 415.893 298.709 409.855C220.43 399.005 161.492 328.216 168.152 252.702C169.065 242.114 171.254 231.789 174.539 221.813C186.126 186.9 211.398 157.149 243.147 137.549C239.68 142.011 236.213 146.386 232.838 150.762C229.188 155.399 223.805 158.724 220.703 163.887C218.331 167.912 220.339 169.137 224.535 169.399C227.637 169.574 230.83 170.275 231.195 173.687C231.652 177.712 228.002 183.662 226.542 187.337C225.813 189.175 221.89 195.65 222.528 197.4C223.44 200.113 226.36 198.1 227.729 196.525C232.108 191.625 235.848 186.2 238.95 180.512C239.863 178.762 240.866 176.925 242.508 175.7C244.516 174.212 247.526 174.125 249.625 175.35C251.814 176.575 253.092 179.112 252.727 181.562C252.088 185.412 248.074 187.775 244.516 189.612C240.958 191.45 237.034 194.075 236.761 198.013C236.578 200.988 238.768 203.788 238.129 206.675C237.582 209.038 235.392 210.7 233.111 211.838C229.736 213.501 225.721 214.551 222.254 212.976C220.612 212.276 219.517 209.738 217.784 209.388C215.321 208.95 214.682 210.875 212.584 211.576C209.938 212.451 207.201 211.838 204.829 210.613C197.712 207.025 188.406 212.363 188.406 219.976C188.406 224.526 192.512 226.626 195.432 229.338C199.628 233.189 198.99 236.164 199.172 241.589C199.355 251.476 202.548 260.927 205.741 270.289C207.839 276.59 209.208 283.852 216.324 286.652C224.535 289.89 227.82 281.49 235.757 280.965C241.687 280.615 246.797 284.552 252.179 286.915C264.77 292.428 279.276 289.19 292.14 293.915C298.344 296.19 304.092 300.74 306.008 306.865C306.92 309.84 306.099 314.041 302.814 314.478C298.435 315.091 290.407 307.565 286.757 305.553C280.553 302.14 273.893 299.165 266.686 298.378C262.215 297.853 257.197 298.378 254.095 301.615C253.548 302.14 253.092 302.84 253 303.54C252.727 305.903 255.829 307.04 258.292 307.478C269.788 309.578 280.371 314.391 290.407 319.991C295.424 322.791 300.169 325.853 305.095 328.653C308.289 330.491 313.763 332.503 315.314 336.091C316.773 339.329 311.573 340.991 309.383 342.041C306.373 343.441 303.544 344.754 302.176 347.991C301.446 349.829 300.99 351.929 299.804 353.504C296.884 357.354 290.954 357.092 285.936 357.092C275.353 357.092 264.77 360.067 255.829 365.492C253.548 366.892 251.176 368.817 251.176 371.442C251.176 376.605 258.839 377.13 264.222 377.48C276.539 378.355 286.21 387.892 297.888 391.655C307.376 394.717 317.777 393.93 327.721 392.967C356.734 390.342 385.929 386.93 413.756 379.492Z" fill="url(#paint6_linear_3081_1525)"/>
<path d="M299.713 193.463C299.804 192.938 299.986 192.413 300.443 192.063C301.264 191.275 302.723 191.538 303.544 192.238C304.457 192.938 305.004 193.988 305.643 194.775C307.924 197.575 311.756 198.713 315.405 199.15C316.5 199.238 317.686 199.325 318.689 199.763C322.613 201.25 320.332 205.1 317.503 206.326C314.949 207.463 313.489 206.588 311.117 205.625C305.825 203.7 298.162 200.2 299.713 193.463Z" fill="url(#paint7_linear_3081_1525)"/>
<defs>
<linearGradient id="paint0_linear_3081_1525" x1="321.5" y1="115.22" x2="321.5" y2="410.711" gradientUnits="userSpaceOnUse">
<stop stop-color="#B70046"/>
<stop offset="1" stop-color="#69022A"/>
</linearGradient>
<linearGradient id="paint1_linear_3081_1525" x1="416.06" y1="132.409" x2="416.06" y2="328.25" gradientUnits="userSpaceOnUse">
<stop stop-color="#B00747"/>
<stop offset="1" stop-color="#B00747" stop-opacity="0"/>
</linearGradient>
<linearGradient id="paint2_linear_3081_1525" x1="325.927" y1="160.42" x2="325.927" y2="203.472" gradientUnits="userSpaceOnUse">
<stop stop-color="#B00747"/>
<stop offset="1" stop-color="#B00747" stop-opacity="0"/>
</linearGradient>
<linearGradient id="paint3_linear_3081_1525" x1="381.85" y1="246.035" x2="381.85" y2="368.631" gradientUnits="userSpaceOnUse">
<stop stop-color="#B00747"/>
<stop offset="1" stop-color="#B00747" stop-opacity="0"/>
</linearGradient>
<linearGradient id="paint4_linear_3081_1525" x1="330.272" y1="241.773" x2="330.272" y2="269.572" gradientUnits="userSpaceOnUse">
<stop stop-color="#B00747"/>
<stop offset="1" stop-color="#B00747" stop-opacity="0"/>
</linearGradient>
<linearGradient id="paint5_linear_3081_1525" x1="349.215" y1="228.846" x2="349.215" y2="242.191" gradientUnits="userSpaceOnUse">
<stop stop-color="#B00747"/>
<stop offset="1" stop-color="#B00747" stop-opacity="0"/>
</linearGradient>
<linearGradient id="paint6_linear_3081_1525" x1="290.697" y1="137.549" x2="290.697" y2="411.362" gradientUnits="userSpaceOnUse">
<stop stop-color="#B00747"/>
<stop offset="1" stop-color="#B00747" stop-opacity="0"/>
</linearGradient>
<linearGradient id="paint7_linear_3081_1525" x1="310.147" y1="191.581" x2="310.147" y2="206.864" gradientUnits="userSpaceOnUse">
<stop stop-color="#B00747"/>
<stop offset="1" stop-color="#B00747" stop-opacity="0"/>
</linearGradient>
</defs>
</svg>
