<svg width="26" height="26" viewBox="0 0 26 26" fill="none" xmlns="http://www.w3.org/2000/svg">
<path d="M15.375 25C21.3891 24.0902 26 18.8716 26 12.5702C26 5.62787 20.4035 -1.31918e-07 13.5 -8.49831e-08C6.59644 -3.80482e-08 1 5.62787 1 12.5702C1 18.8716 5.61092 24.0902 11.625 25L11.625 16.3413L9.75 16.3413C8.71446 16.3413 7.875 15.4971 7.875 14.4557C7.875 13.4144 8.71446 12.5702 9.75 12.5702L11.625 12.5702L11.625 10.0562C11.625 7.62634 13.5838 5.65659 16 5.65659L16.625 5.65659C17.6605 5.65659 18.5 6.50077 18.5 7.54212C18.5 8.58348 17.6605 9.42765 16.625 9.42765L16 9.42765C15.6549 9.42765 15.375 9.70905 15.375 10.0562L15.375 12.5702L17.25 12.5702C18.2855 12.5702 19.125 13.4144 19.125 14.4557C19.125 15.4971 18.2855 16.3413 17.25 16.3413L15.375 16.3413L15.375 25Z" fill="url(#paint0_linear_3074_1528)"/>
<defs>
<linearGradient id="paint0_linear_3074_1528" x1="13.5" y1="-8.49831e-08" x2="13.5" y2="25" gradientUnits="userSpaceOnUse">
<stop stop-color="#3D3A3B"/>
<stop offset="1" stop-color="#3D3A3B" stop-opacity="0.48"/>
</linearGradient>
</defs>
</svg>
