<svg width="32" height="32" viewBox="0 0 32 32" fill="none" xmlns="http://www.w3.org/2000/svg">
<path d="M16.0002 28C22.6277 28 28.0002 22.6274 28.0002 16C28.0002 9.37258 22.6277 4 16.0002 4C9.37283 4 4.00024 9.37258 4.00024 16C4.00024 22.6274 9.37283 28 16.0002 28Z" stroke="white" stroke-width="1.5" stroke-linecap="round" stroke-linejoin="round"/>
<path d="M15 15H16.0001L16 22H17" stroke="white" stroke-width="1.5" stroke-linecap="round" stroke-linejoin="round"/>
<path d="M15.75 11.75C16.4404 11.75 17 11.1904 17 10.5C17 9.80964 16.4404 9.25 15.75 9.25C15.0596 9.25 14.5 9.80964 14.5 10.5C14.5 11.1904 15.0596 11.75 15.75 11.75Z" fill="white"/>
</svg>
