<svg width="26" height="26" viewBox="0 0 26 26" fill="none" xmlns="http://www.w3.org/2000/svg">
<path fill-rule="evenodd" clip-rule="evenodd" d="M23.3056 2.14678C24.7128 1.58661 26.2214 2.71159 25.9729 4.13589L23.0381 20.959C22.7551 22.581 20.8707 23.5118 19.2967 22.7034C17.9795 22.0271 16.0253 20.986 14.2641 19.898C13.3846 19.3547 10.6917 17.6125 11.0227 16.3724C11.3057 15.312 15.8328 11.3279 18.4198 8.95853C19.436 8.02782 18.9732 7.49015 17.7731 8.34708C14.796 10.4729 10.0163 13.7049 8.43566 14.6144C7.0411 15.4169 6.31297 15.5539 5.44445 15.4169C3.85845 15.1671 2.38804 14.7802 1.18757 14.3097C-0.434951 13.6738 -0.355918 11.5658 1.18647 10.9519L23.3056 2.14678Z" fill="url(#paint0_linear_3074_1526)"/>
<defs>
<linearGradient id="paint0_linear_3074_1526" x1="13" y1="2" x2="13" y2="23" gradientUnits="userSpaceOnUse">
<stop stop-color="#3D3A3B"/>
<stop offset="1" stop-color="#3D3A3B" stop-opacity="0.48"/>
</linearGradient>
</defs>
</svg>
