<svg width="26" height="26" viewBox="0 0 26 26" fill="none" xmlns="http://www.w3.org/2000/svg">
<path fill-rule="evenodd" clip-rule="evenodd" d="M13.5 1C7.14872 1 2 6.14872 2 12.5C2 14.673 2.60381 16.7083 3.65319 18.4435L2.62768 21.9302C2.36826 22.8123 3.18777 23.6318 4.06971 23.3723L7.55647 22.3468C9.29167 23.3963 11.327 24 13.5 24C19.8512 24 25 18.8512 25 12.5C25 6.14872 19.8512 1 13.5 1ZM10.8989 15.1021C13.2248 17.428 15.4458 17.7346 16.23 17.7634C17.4228 17.8074 18.5841 16.8964 19.0369 15.8398C19.1479 15.5811 19.1202 15.2698 18.9343 15.0316C18.3049 14.2256 17.4529 13.648 16.6204 13.0732C16.2607 12.8243 15.7661 12.9014 15.5011 13.2538L14.8103 14.3062C14.7336 14.4229 14.5812 14.463 14.46 14.3937C13.9925 14.1264 13.3109 13.6707 12.8206 13.1803C12.3308 12.6906 11.9028 12.0398 11.6625 11.6024C11.5994 11.4874 11.6344 11.3454 11.7396 11.2672L12.8016 10.4785C13.1183 10.2044 13.174 9.7387 12.9409 9.39762C12.4247 8.64254 11.8235 7.68288 10.9533 7.04815C10.7157 6.87478 10.415 6.85532 10.1668 6.96169C9.10896 7.41504 8.1936 8.57607 8.23758 9.77099C8.26644 10.5552 8.57308 12.7762 10.8989 15.1021Z" fill="url(#paint0_linear_3074_1527)"/>
<defs>
<linearGradient id="paint0_linear_3074_1527" x1="13.5" y1="1" x2="13.5" y2="24" gradientUnits="userSpaceOnUse">
<stop stop-color="#3D3A3B"/>
<stop offset="1" stop-color="#3D3A3B" stop-opacity="0.48"/>
</linearGradient>
</defs>
</svg>
